<svg xmlns="http://www.w3.org/2000/svg" width="136" height="41" viewBox="0 0 136 41">
    <g fill="none" fill-rule="evenodd">
        <path fill="#A6A6A6" d="M131.161 40.296H4.764A4.775 4.775 0 0 1 0 35.528V4.761A4.768 4.768 0 0 1 4.764 0h126.397C133.787 0 136 2.136 136 4.761v30.767c0 2.625-2.213 4.768-4.839 4.768z"/>
        <path fill="#000" d="M135.025 35.53a3.858 3.858 0 0 1-3.863 3.858H4.764a3.863 3.863 0 0 1-3.867-3.859V4.76A3.868 3.868 0 0 1 4.764.897h126.397a3.863 3.863 0 0 1 3.863 3.863v30.77z"/>
        <g fill="#FFF">
            <path d="M30.351 19.93c-.029-3.246 2.659-4.826 2.782-4.9-1.523-2.219-3.882-2.522-4.711-2.546-1.982-.209-3.904 1.186-4.913 1.186-1.03 0-2.584-1.166-4.26-1.132-2.155.033-4.172 1.282-5.278 3.22-2.283 3.952-.58 9.76 1.607 12.954 1.094 1.565 2.372 3.311 4.045 3.25 1.637-.067 2.249-1.044 4.224-1.044 1.958 0 2.532 1.044 4.239 1.005 1.756-.028 2.863-1.572 3.918-3.15 1.265-1.794 1.772-3.56 1.793-3.65-.042-.014-3.413-1.3-3.446-5.192zM27.127 10.382c.88-1.1 1.483-2.599 1.316-4.119-1.274.056-2.868.882-3.786 1.958-.812.95-1.537 2.505-1.35 3.968 1.432.106 2.902-.723 3.82-1.807z"/>
        </g>
        <g fill="#FFF">
            <path d="M54.042 31.737h-2.287L50.5 27.8h-4.356l-1.193 3.938h-2.228l4.316-13.406h2.665l4.337 13.406zm-3.918-5.59l-1.134-3.5c-.12-.358-.344-1.2-.676-2.526h-.04c-.132.57-.345 1.412-.637 2.526l-1.113 3.5h3.6zM65.141 26.785c0 1.644-.444 2.944-1.333 3.898-.796.849-1.784 1.273-2.964 1.273-1.273 0-2.188-.457-2.745-1.372h-.04v5.092H55.91V25.253c0-1.034-.027-2.095-.08-3.183h1.89l.12 1.533h.04c.716-1.155 1.803-1.731 3.262-1.731 1.14 0 2.092.45 2.854 1.352.763.902 1.144 2.09 1.144 3.56zm-2.188.079c0-.941-.212-1.717-.637-2.328-.464-.636-1.088-.955-1.87-.955-.53 0-1.011.178-1.441.527a2.444 2.444 0 0 0-.845 1.383c-.067.266-.1.484-.1.655v1.612c0 .703.215 1.297.647 1.781.43.485.991.727 1.68.727.809 0 1.439-.313 1.889-.935.451-.624.677-1.446.677-2.467zM76.26 26.785c0 1.644-.445 2.944-1.334 3.898-.795.849-1.783 1.273-2.963 1.273-1.273 0-2.188-.457-2.744-1.372h-.04v5.092H67.03V25.253c0-1.034-.027-2.095-.08-3.183h1.89l.12 1.533H69c.715-1.155 1.802-1.731 3.261-1.731 1.14 0 2.092.45 2.855 1.352.76.902 1.143 2.09 1.143 3.56zm-2.188.079c0-.941-.213-1.717-.638-2.328-.464-.636-1.086-.955-1.869-.955-.53 0-1.011.178-1.442.527a2.442 2.442 0 0 0-.845 1.383c-.065.266-.1.484-.1.655v1.612c0 .703.216 1.297.645 1.781.432.484.992.727 1.683.727.809 0 1.438-.313 1.889-.935.451-.624.677-1.446.677-2.467zM88.691 27.978c0 1.14-.396 2.068-1.19 2.784-.874.783-2.09 1.174-3.652 1.174-1.443 0-2.6-.278-3.475-.835l.498-1.79c.943.57 1.977.856 3.104.856.81 0 1.44-.184 1.891-.548.45-.365.675-.854.675-1.465 0-.544-.185-1.002-.557-1.374-.37-.372-.987-.717-1.85-1.037-2.347-.875-3.52-2.158-3.52-3.844 0-1.102.412-2.006 1.235-2.709.82-.704 1.914-1.056 3.282-1.056 1.22 0 2.233.213 3.042.637l-.537 1.75c-.755-.41-1.61-.616-2.565-.616-.756 0-1.346.187-1.77.557a1.592 1.592 0 0 0-.536 1.214c0 .53.204.969.615 1.313.358.318 1.008.663 1.95 1.035 1.154.464 2.001 1.007 2.546 1.63.543.62.814 1.397.814 2.324zM95.792 23.682h-2.367v4.694c0 1.193.417 1.79 1.253 1.79.384 0 .702-.033.954-.1l.06 1.631c-.423.158-.98.238-1.67.238-.849 0-1.512-.26-1.99-.776-.477-.518-.717-1.386-.717-2.606V23.68h-1.41v-1.612h1.41v-1.77l2.11-.636v2.406h2.367v1.614zM106.474 26.824c0 1.486-.425 2.706-1.273 3.66-.89.982-2.07 1.472-3.543 1.472-1.418 0-2.547-.47-3.39-1.411-.842-.941-1.263-2.13-1.263-3.56 0-1.499.433-2.726 1.303-3.68.867-.955 2.038-1.432 3.51-1.432 1.418 0 2.56.47 3.42 1.412.825.914 1.236 2.094 1.236 3.54zm-2.228.07c0-.892-.19-1.656-.577-2.294-.45-.772-1.094-1.157-1.928-1.157-.863 0-1.52.386-1.97 1.157-.385.639-.576 1.415-.576 2.334 0 .892.19 1.656.577 2.293.464.772 1.113 1.156 1.95 1.156.82 0 1.464-.392 1.928-1.176.396-.65.596-1.423.596-2.313zM113.455 23.96a3.73 3.73 0 0 0-.677-.06c-.755 0-1.34.285-1.75.856-.358.504-.538 1.14-.538 1.91v5.071h-2.146l.02-6.622a52.56 52.56 0 0 0-.08-3.044h1.87l.079 1.85h.059c.227-.636.584-1.148 1.074-1.531a2.597 2.597 0 0 1 1.552-.518c.199 0 .378.014.537.04v2.047zM123.06 26.446c0 .385-.024.71-.078.975h-6.443c.025.955.336 1.685.935 2.189.543.45 1.245.676 2.107.676.954 0 1.825-.152 2.607-.458l.337 1.491c-.915.4-1.995.598-3.24.598-1.5 0-2.677-.442-3.533-1.323-.854-.882-1.282-2.065-1.282-3.55 0-1.458.398-2.672 1.194-3.64.835-1.034 1.962-1.55 3.38-1.55 1.394 0 2.448.516 3.165 1.55.567.821.852 1.837.852 3.042zm-2.047-.557c.014-.636-.126-1.186-.417-1.65-.372-.598-.943-.896-1.712-.896-.702 0-1.273.29-1.71.875-.357.464-.57 1.022-.635 1.67h4.474v.001z"/>
        </g>
        <g fill="#FFF">
            <path d="M49.413 10.083c0 1.186-.355 2.078-1.066 2.678-.657.553-1.592.83-2.803.83-.6 0-1.114-.026-1.544-.079V7.034c.56-.09 1.165-.137 1.818-.137 1.153 0 2.023.25 2.61.752.656.567.985 1.378.985 2.434zm-1.113.03c0-.77-.203-1.359-.61-1.77-.407-.41-1.002-.615-1.784-.615-.333 0-.616.022-.85.068v4.926c.13.02.367.029.713.029.807 0 1.431-.225 1.87-.674.44-.45.661-1.104.661-1.965zM55.316 11.119c0 .73-.209 1.329-.626 1.798-.437.483-1.016.723-1.74.723-.697 0-1.252-.23-1.666-.694-.413-.462-.62-1.045-.62-1.749 0-.735.213-1.339.64-1.807.427-.468 1.002-.703 1.725-.703.697 0 1.257.23 1.681.693.403.45.606 1.03.606 1.739zm-1.095.034c0-.438-.095-.814-.283-1.127-.222-.38-.537-.568-.947-.568-.424 0-.747.189-.968.568-.19.313-.284.695-.284 1.146 0 .438.095.814.284 1.127.228.38.547.569.958.569.403 0 .719-.193.947-.579.195-.319.293-.698.293-1.136zM63.23 8.784l-1.486 4.749h-.967l-.616-2.063a15.434 15.434 0 0 1-.381-1.534h-.02a11.233 11.233 0 0 1-.381 1.534l-.654 2.063h-.978l-1.398-4.75h1.085l.537 2.258c.13.534.237 1.043.323 1.524h.019a16.9 16.9 0 0 1 .392-1.514l.674-2.266h.86l.646 2.218c.156.54.283 1.062.38 1.563h.03c.071-.488.179-1.009.322-1.563l.576-2.218h1.037v-.001zM68.703 13.533h-1.056v-2.72c0-.839-.318-1.258-.957-1.258a.953.953 0 0 0-.762.346c-.195.23-.293.502-.293.814v2.816h-1.056v-3.39c0-.418-.013-.87-.038-1.36h.927l.05.743h.029c.123-.23.306-.421.547-.573.286-.177.606-.267.957-.267.443 0 .812.143 1.105.43.365.352.547.876.547 1.574v2.845zM71.615 13.533H70.56V6.605h1.055zM77.83 11.119c0 .73-.208 1.329-.625 1.798-.438.483-1.018.723-1.74.723-.698 0-1.253-.23-1.666-.694-.413-.462-.62-1.045-.62-1.749 0-.735.213-1.339.64-1.807.427-.468 1.001-.703 1.723-.703.699 0 1.258.23 1.683.693.403.45.605 1.03.605 1.739zm-1.096.034c0-.438-.094-.814-.283-1.127-.22-.38-.537-.568-.946-.568-.425 0-.747.189-.968.568-.19.313-.283.695-.283 1.146 0 .438.095.814.283 1.127.229.38.547.569.958.569.403 0 .718-.193.946-.579.197-.319.293-.698.293-1.136zM82.94 13.533h-.948l-.079-.548h-.029c-.324.437-.787.655-1.387.655-.448 0-.811-.144-1.084-.43a1.349 1.349 0 0 1-.372-.967c0-.58.242-1.022.729-1.329.485-.306 1.168-.456 2.048-.45v-.088c0-.625-.329-.938-.987-.938-.468 0-.881.118-1.238.352l-.214-.693c.44-.273.986-.41 1.629-.41 1.24 0 1.863.655 1.863 1.964v1.75c0 .474.024.851.069 1.132zM81.844 11.9v-.733c-1.165-.02-1.747.3-1.747.957 0 .248.066.433.202.557.136.124.31.186.516.186.232 0 .449-.074.646-.22a.9.9 0 0 0 .383-.747zM88.939 13.533h-.937l-.05-.763h-.029c-.299.58-.808.87-1.525.87-.572 0-1.048-.224-1.426-.674-.378-.449-.566-1.032-.566-1.749 0-.768.204-1.39.615-1.866.398-.444.886-.665 1.466-.665.638 0 1.084.214 1.338.645h.02V6.605h1.057v5.648c0 .462.012.889.037 1.28zm-1.094-2.003v-.792a1.202 1.202 0 0 0-.411-.972 1.038 1.038 0 0 0-.706-.26c-.394 0-.702.157-.93.47-.224.314-.338.714-.338 1.202 0 .47.108.85.325 1.144.228.312.537.468.923.468.346 0 .623-.13.834-.39.203-.242.303-.532.303-.87zM97.968 11.119c0 .73-.208 1.329-.625 1.798-.437.483-1.016.723-1.74.723-.696 0-1.251-.23-1.666-.694-.413-.462-.62-1.045-.62-1.749 0-.735.213-1.339.64-1.807.427-.468 1.001-.703 1.726-.703.696 0 1.257.23 1.68.693.403.45.605 1.03.605 1.739zm-1.094.034c0-.438-.094-.814-.283-1.127-.222-.38-.537-.568-.948-.568-.423 0-.745.189-.968.568-.19.313-.283.695-.283 1.146 0 .438.095.814.283 1.127.229.38.547.569.958.569.403 0 .72-.193.948-.579.195-.319.293-.698.293-1.136zM103.645 13.533h-1.055v-2.72c0-.839-.318-1.258-.958-1.258a.95.95 0 0 0-.761.346c-.196.23-.293.502-.293.814v2.816H99.52v-3.39c0-.418-.012-.87-.038-1.36h.927l.05.743h.029c.124-.23.307-.421.547-.573.287-.177.606-.267.958-.267.442 0 .81.143 1.104.43.366.352.547.876.547 1.574v2.845zM110.75 9.574h-1.162v2.307c0 .587.206.88.615.88.19 0 .347-.016.47-.05l.028.801c-.209.079-.483.118-.82.118-.417 0-.742-.127-.976-.38-.236-.254-.353-.682-.353-1.281V9.574h-.694v-.79h.694v-.87l1.035-.313v1.182h1.162v.791h.001zM116.34 13.533h-1.057v-2.7c0-.852-.319-1.278-.956-1.278-.49 0-.824.247-1.008.74-.031.104-.05.231-.05.38v2.856h-1.054V6.605h1.055v2.862h.02c.332-.521.809-.781 1.427-.781.437 0 .798.143 1.085.43.358.358.537.89.537 1.593v2.824zM122.105 10.933c0 .19-.014.349-.04.479H118.9c.014.47.165.827.459 1.075.268.221.613.332 1.036.332.469 0 .896-.074 1.28-.224l.166.733c-.45.195-.98.293-1.594.293-.735 0-1.315-.216-1.734-.65-.42-.433-.63-1.014-.63-1.743 0-.717.195-1.313.587-1.789.41-.507.962-.761 1.66-.761.683 0 1.202.254 1.553.761.283.403.423.902.423 1.494zm-1.008-.273a1.421 1.421 0 0 0-.204-.81c-.183-.294-.462-.44-.84-.44-.345 0-.626.142-.84.43-.176.228-.28.501-.314.82h2.198z"/>
        </g>
    </g>
</svg>
