<svg xmlns="http://www.w3.org/2000/svg" width="140" height="80" style="background:#fafafc" viewBox="0 0 140 80">
    <g fill="none" fill-rule="evenodd">
        <path fill="#848381" d="M94.173 15H45.836a.832.832 0 0 0-.836.835v48.27c0 .458.372.83.831.83h48.342a.83.83 0 0 0 .831-.83v-48.27a.83.83 0 0 0-.83-.835zm-.83 24.14h-14.38a25.173 25.173 0 0 0 14.38-14.36v14.36zM70.004 22.7a6.881 6.881 0 0 0 6.83-6.035h4.4c-.45 5.864-5.34 10.396-11.23 10.405-5.877-.018-10.75-4.552-11.18-10.405h4.4a6.801 6.801 0 0 0 6.78 6.035zm-5.137-6.035h10.274a5.205 5.205 0 0 1-5.137 4.37 5.22 5.22 0 0 1-5.137-4.37zm5.137 12.07c6.808-.009 12.445-5.286 12.893-12.07h4.376C86.887 25.912 79.268 33.21 70 33.21s-16.888-7.298-17.274-16.545h4.376c.448 6.788 6.09 12.066 12.903 12.07zm0 6.035c10.144-.009 18.486-7.985 18.936-18.105h4.376c-.45 12.532-10.755 22.46-23.312 22.46-12.558 0-22.862-9.928-23.313-22.46h4.376c.45 10.12 8.793 18.096 18.937 18.105zm-8.958 4.37h-14.38V24.78a25.107 25.107 0 0 0 14.38 14.36zm-14.38 24.135V40.8h46.675v22.475H46.667zM61.808 56.2a.225.225 0 0 1-.23.3h-1.157a.25.25 0 0 1-.23-.185l-.74-4.81H59.4l-2.223 5a.21.21 0 0 1-.21.14h-.226a.21.21 0 0 1-.21-.14l-2.248-5h-.045l-.756 4.81a.25.25 0 0 1-.23.185H52.13a.225.225 0 0 1-.23-.3l1.502-8.53a.23.23 0 0 1 .235-.2h.21a.215.215 0 0 1 .21.115l2.8 6h.045l2.798-6a.215.215 0 0 1 .21-.115h.211a.23.23 0 0 1 .23.185l1.457 8.545zm5.884-8.37v8.415a.23.23 0 0 1-.23.23H66.28a.23.23 0 0 1-.23-.23V47.83a.23.23 0 0 1 .23-.23h1.181a.23.23 0 0 1 .23.23zm11.225 8.3a.22.22 0 0 1-.21.345h-1.362a.265.265 0 0 1-.21-.115l-1.828-2.89h-.045l-1.782 2.915a.31.31 0 0 1-.21.115h-1.413a.23.23 0 0 1-.23-.345l2.639-4.21-2.549-4a.225.225 0 0 1 .21-.345h1.502a.31.31 0 0 1 .21.115l1.598 2.68h.025l1.642-2.68a.23.23 0 0 1 .21-.115h1.503a.22.22 0 0 1 .21.345l-2.549 4 2.64 4.185zm9.213-8.3v1.04a.23.23 0 0 1-.23.23h-1.943v7.125a.23.23 0 0 1-.23.23h-1.202a.25.25 0 0 1-.23-.23V49.1h-1.928a.23.23 0 0 1-.23-.23v-1.04a.22.22 0 0 1 .23-.23h5.558a.23.23 0 0 1 .205.23z"/>
        <path d="M0 0h140v80H0z"/>
    </g>
</svg>
